<?xml version="1.0" encoding="UTF-8" standalone="no"?>
<!-- Created with Inkscape (http://www.inkscape.org/) -->

<svg
   version="1.1"
   id="svg1"
   width="636"
   height="636"
   viewBox="0 0 636 636"
   sodipodi:docname="im.svg"
   inkscape:version="1.3.2 (091e20e, 2023-11-25, custom)"
   xmlns:inkscape="http://www.inkscape.org/namespaces/inkscape"
   xmlns:sodipodi="http://sodipodi.sourceforge.net/DTD/sodipodi-0.dtd"
   xmlns="http://www.w3.org/2000/svg"
   xmlns:svg="http://www.w3.org/2000/svg">
  <defs
     id="defs1" />
  <sodipodi:namedview
     id="namedview1"
     pagecolor="#ffffff"
     bordercolor="#000000"
     borderopacity="0.25"
     inkscape:showpageshadow="2"
     inkscape:pageopacity="0.0"
     inkscape:pagecheckerboard="0"
     inkscape:deskcolor="#d1d1d1"
     inkscape:zoom="1.2641201"
     inkscape:cx="287.94731"
     inkscape:cy="323.14966"
     inkscape:window-width="2560"
     inkscape:window-height="1351"
     inkscape:window-x="-9"
     inkscape:window-y="-9"
     inkscape:window-maximized="1"
     inkscape:current-layer="g1" />
  <g
     inkscape:groupmode="layer"
     inkscape:label="Image"
     id="g1">
    <path
       style="fill:#000000"
       d="m 262,582.92438 c -6.69413,-1.7543 -8.56616,-1.8484 -17.42243,-0.87577 -10.63757,1.16825 -21.2935,0.61712 -31.30755,-1.61924 -29.92051,-6.68194 -54.44807,-35.03924 -59.35936,-68.62779 -1.6276,-11.13125 -0.60888,-33.88932 1.98765,-44.4038 2.16016,-8.74737 8.52983,-26.39636 11.93717,-33.07529 l 2.10828,-4.13257 -12.99014,-9.64859 C 134.59355,403.93309 119.59237,388.25595 106.19931,367.5 102.65036,362 99.388095,357.10692 98.949829,356.62649 98.04318,355.63262 73.946183,364.54375 63.774964,369.63425 59.904975,371.5711 55.534143,373 53.47951,373 45.614856,373 42.064938,363.77146 47.75,358.10529 c 2.539897,-2.53146 26.55053,-12.73853 38,-16.15404 2.3375,-0.6973 4.25,-1.57735 4.25,-1.95567 0,-2.07175 -7.948125,-24.47829 -8.781571,-24.7561 -1.62999,-0.54333 -19.933181,2.65334 -30.436181,5.31572 -9.061734,2.29703 -10.027627,2.36927 -12.763304,0.9546 -7.003615,-3.62171 -6.860986,-12.46348 0.2607,-16.16114 3.680255,-1.91083 22.218874,-5.79404 32.673276,-6.84393 C 76.737112,297.92384 78,297.48245 78,296.04169 c 0,-0.96542 -0.494637,-7.66476 -1.099194,-14.88741 -1.92974,-23.05466 1.722359,-51.10302 9.785629,-75.15428 1.936089,-5.775 7.011251,-17.51939 11.278138,-26.09864 l 7.757977,-15.59865 -1.85137,-7.2902 c -2.94937,-11.61387 -4.160569,-31.70113 -2.88469,-47.84162 2.89269,-36.593853 14.14051,-61.393241 30.12536,-66.42089 9.88598,-3.109394 18.37566,-2.216461 37.38815,3.932431 8.91862,2.884401 31.83933,13.970067 40.87901,19.77125 3.23346,2.075059 5.60433,3.328377 5.2686,2.785151 -1.19938,-1.940628 21.07456,-10.527511 40.76845,-15.716755 52.40256,-13.807816 114.27614,-9.119953 159.67814,12.098041 l 7.5942,3.549044 6.9058,-4.243456 c 11.47886,-7.053498 28.21781,-14.927204 40.9058,-19.241372 10.79667,-3.67108 13.00278,-4.085456 22,-4.132285 8.00547,-0.04167 10.79781,0.341094 14,1.919055 17.34535,8.547373 28.4784,38.849258 28.4941,77.555126 0.006,15.61159 -1.18519,27.93437 -3.61566,37.39324 l -1.52103,5.91947 7.49416,15.08053 c 10.84872,21.83093 16.73397,40.62012 20.22828,64.58053 1.3271,9.09988 1.54339,15.25671 1.03633,29.5 -0.35244,9.9 -0.91133,19.4625 -1.24199,21.25 -0.56989,3.0808 -0.44427,3.25 2.41294,3.25 3.12045,0 21.6088,3.01059 31.16628,5.07503 9.35686,2.0211 13.90286,9.40206 9.58642,15.56465 -3.03702,4.33595 -6.4029,4.7311 -16.65876,1.95573 -8.01566,-2.16915 -25.98863,-5.57858 -29.47529,-5.59139 C 553.56133,315.00092 545,337.99688 545,340.2682 c 0,0.2719 2.0549,1.0118 4.56645,1.64422 5.99328,1.50912 31.13255,11.93598 34.79332,14.431 5.65253,3.85252 6.56934,10.99398 1.88449,14.67908 -3.64003,2.86325 -8.37124,2.44229 -16.05816,-1.42878 -3.72018,-1.87346 -12.81425,-5.74462 -20.20904,-8.60258 -12.23059,-4.72693 -13.53684,-5.04202 -14.46106,-3.48823 -1.37776,2.31626 -14.06297,21.39314 -16.25635,24.44739 -1.71041,2.38173 -1.70375,2.42892 0.23812,1.68631 12.7504,-4.87604 28.17507,-2.24846 39.59888,6.74562 18.73248,14.74827 23.46575,41.29778 13.49605,75.70111 -10.37397,35.79843 -37.79515,63.36729 -73.0927,73.48639 -7.26456,2.0826 -11.1693,2.58198 -20.25,2.58981 -6.1875,0.005 -11.25,0.41486 -11.25,0.91006 0,0.49519 -1.43938,3.26961 -3.19862,6.16538 -4.19997,6.91329 -13.88624,16.96311 -20.72381,21.50163 -6.31165,4.18943 -17.82261,8.87994 -25.36105,10.33417 -5.98596,1.15474 -29.26801,1.22586 -35.21652,0.10758 -2.96123,-0.55669 -5.29847,-0.2542 -9,1.16482 -7.22812,2.77096 -22.24539,3.36795 -30,1.19261 -8.2114,-2.30347 -46.00355,-2.3622 -55,-0.0855 -8.09364,2.04827 -18.43169,1.85055 -27.5,-0.52595 z m 25.40638,-18.61584 c 1.70149,-0.8696 4.78242,-3.09477 6.8465,-4.94481 2.76763,-2.48064 4.68403,-3.36373 7.29966,-3.36373 5.16654,0 9.15695,2.40084 9.94364,5.98262 0.6378,2.90389 0.8666,3.01738 6.08328,3.01738 5.26288,0 5.42054,-0.081 5.42054,-2.78439 0,-3.42362 4.1754,-6.21561 9.29541,-6.21561 2.60291,0 4.71855,1.0224 8.34571,4.03314 14.55173,12.07875 33.62545,7.02249 38.83737,-10.29542 0.73772,-2.45124 1.67268,-9.13084 2.07769,-14.84355 0.7062,-9.96094 0.86977,-10.52012 3.9901,-13.64045 4.47454,-4.47454 9.46004,-4.52897 13.55251,-0.14796 2.47179,2.64606 2.90121,3.91792 2.90121,8.59291 0,7.53318 -3.62318,24.6764 -6.47447,30.63417 l -2.35087,4.91214 11.16267,-0.50431 c 21.23789,-0.95949 35.28276,-9.28558 46.79435,-27.74067 7.71164,-12.3631 11.11424,-40.9321 7.39845,-62.11901 -1.46966,-8.37977 -5.43182,-21.08438 -9.43221,-30.24422 -2.24425,-5.13875 -1.86188,-5.00252 -8.31644,-2.96299 C 438.23415,442.47869 433,436.84575 433,433.29943 c 0,-4.24776 2.30389,-6.80809 10.29367,-11.43942 3.96348,-2.29746 9.12261,-5.48005 11.46473,-7.07243 2.34213,-1.59237 4.77416,-2.57648 5.40451,-2.18689 0.67059,0.41444 0.87432,0.26857 0.49105,-0.35158 -0.36252,-0.58657 1.46644,-2.46478 4.09549,-4.20575 7.64772,-5.06435 23.632,-18.62727 30.09429,-25.53547 17.01038,-18.18415 29.33674,-38.45232 37.12922,-61.05136 7.31552,-21.2158 8.47446,-28.74379 8.46059,-54.95653 -0.0115,-21.67322 -0.17405,-23.68946 -2.81834,-34.952 -5.3562,-22.81305 -11.34031,-38.03738 -21.67849,-55.15277 l -5.17743,-8.57149 1.11428,-5.16187 c 0.61285,-2.83903 1.80629,-8.08687 2.65209,-11.66187 2.19071,-9.25965 3.00616,-34.2466 1.5315,-46.9282 -0.66694,-5.735513 -2.29238,-14.684738 -3.61209,-19.887168 -5.74901,-22.663287 -12.33358,-28.268643 -28.50377,-24.264891 -14.48419,3.586296 -35.44108,13.270867 -49.35307,22.806978 -10.37933,7.114615 -12.52803,7.87289 -16.49548,5.821245 -1.69065,-0.874271 -3.81897,-2.72668 -4.72959,-4.116464 C 411.39496,81.427641 408.63526,80.17455 391.5,74.504122 376.8428,69.653739 359.20795,65.663912 344.73327,63.923308 329.43634,62.083825 291.39885,63.237857 277,65.978289 c -26.78543,5.097885 -52.22886,13.66967 -55.52999,18.70782 -0.89406,1.364518 -3.19517,3.136763 -5.11357,3.938322 -3.92668,1.640671 -3.81062,1.690593 -17.85644,-7.680523 -10.04289,-6.700434 -30.53449,-16.427379 -40.86187,-19.396296 -10.06799,-2.89435 -19.10141,-3.312274 -22.35384,-1.034183 -5.7321,4.014921 -10.79018,16.030984 -14.30642,33.986571 -0.64624,3.3 -1.39295,14.325 -1.65935,24.5 -0.50464,19.27423 0.37263,28.0417 4.21066,42.08123 l 1.79913,6.58124 -3.03491,4.41876 c -3.4828,5.07089 -13.14089,24.14422 -15.7726,31.14859 -1.00307,2.66971 -2.22414,4.45353 -2.80346,4.09549 -0.5645,-0.34888 -0.73608,-0.16465 -0.3813,0.4094 0.35479,0.57406 -0.67825,6.15608 -2.29563,12.40451 -5.52253,21.3352 -6.431122,28.03808 -6.487652,47.86078 -0.0621,21.77714 1.616503,33.20669 7.540692,51.34425 12.92303,39.56524 43.5755,75.17873 86.10685,100.04302 13.76443,8.04683 15.99344,11.50256 11.82698,18.33589 -2.44193,4.00498 -5.90023,4.98557 -10.13402,2.87348 C 188.13297,439.71849 186.37431,439 185.98514,439 c -1.4465,0 -10.34128,25.06896 -12.52853,35.3103 -2.51913,11.79531 -2.87742,25.04679 -0.97512,36.06519 2.99518,17.34855 8.54952,27.88285 20.5688,39.01058 11.58039,10.72141 20.90552,14.52451 37.61396,15.34026 l 11.16424,0.54507 -2.38772,-4.8857 c -3.53466,-7.23252 -5.45034,-15.66071 -6.12102,-26.92984 l -0.59777,-10.04413 3.21573,-2.70587 c 4.40433,-3.70599 9.26217,-3.65982 13.046,0.124 2.25376,2.25376 2.94861,4.03509 3.41315,8.75 2.02009,20.50296 3.21389,25.03625 7.97011,30.26515 6.09191,6.69734 18.62163,8.76569 27.03941,4.46353 z M 200.5,300.66202 c -10.89544,-3.6296 -17.68569,-9.56281 -22.36483,-19.54201 -2.21831,-4.73098 -2.62776,-6.96463 -2.58836,-14.12001 0.0399,-7.24915 0.46837,-9.37379 2.91145,-14.43776 3.63043,-7.52509 9.5116,-13.42052 17.09621,-17.13766 5.14483,-2.52143 7.09025,-2.91457 14.44553,-2.91921 7.10152,-0.004 9.42464,0.42819 14.12001,2.6298 15.19665,7.12555 23.52518,23.46852 19.87362,38.99778 -1.72397,7.33165 -3.42133,10.38165 -9.14622,16.43487 -8.61791,9.11217 -23.85407,13.58986 -34.34741,10.0942 z m 216.2175,0.2464 c -16.18241,-3.81051 -27.80254,-19.80231 -26.46816,-36.42588 1.00378,-12.50503 8.35405,-23.3523 19.75066,-29.14736 4.80018,-2.44084 6.64515,-2.79914 14.5,-2.81593 7.90158,-0.0169 9.71137,0.33005 14.82874,2.84282 10.10258,4.96065 16.643,13.14974 19.3887,24.27609 3.42356,13.8732 -2.494,28.51808 -14.68408,36.34043 -8.27709,5.3114 -18.13781,7.09101 -27.31586,4.92983 z M 328.5,295.47116 c -2.2,-0.79257 -4.13906,-1.44782 -4.30902,-1.4561 -0.16996,-0.008 -0.0341,-0.45991 0.30194,-1.00361 0.36356,-0.58825 -0.0878,-0.72041 -1.11459,-0.32639 -1.33715,0.51312 -1.57651,0.27376 -1.06339,-1.06339 0.37087,-0.96649 0.25352,-1.473 -0.26678,-1.15143 -0.51091,0.31576 -1.86288,-0.42836 -3.00437,-1.65361 l -2.07543,-2.22771 -2.96839,3.24997 c -5.50243,6.02438 -15.37257,7.97626 -22.71506,4.49202 C 286.91778,292.25857 282,285.648 282,281.84996 282,279.05309 284.98537,275 287.04545,275 c 1.1882,0 4.95029,3.72712 6.46892,6.40878 0.69815,1.23283 2.20724,1.79122 4.8409,1.79122 4.72391,0 9.16219,-3.85738 10.82534,-9.40847 1.02991,-3.43755 1.47129,-3.80218 4.72768,-3.90555 1.97544,-0.0627 4.82038,-0.26007 6.32209,-0.43858 2.36005,-0.28054 2.9853,0.24354 4.60996,3.86402 1.03378,2.30372 3.19413,5.54393 4.80078,7.20048 2.58346,2.66368 3.37529,2.93809 6.84888,2.37347 2.16023,-0.35113 4.10628,-1.1742 4.32455,-1.82903 0.21828,-0.65483 1.44803,-2.3979 2.73277,-3.87347 2.23235,-2.56394 2.46039,-2.61497 5.14429,-1.15102 2.29089,1.24957 2.86534,2.31498 3.11744,5.7818 0.28265,3.88687 -0.0708,4.61912 -4.13694,8.57097 -2.98748,2.9035 -5.94056,4.69735 -9.00187,5.4682 -5.51713,1.38923 -5.22419,1.40022 -10.17024,-0.38166 z m 165.78659,226.58342 c 24.06396,-6.15452 43.70969,-23.05747 55.27108,-47.55458 5.65231,-11.97652 8.43646,-23.40568 9.14083,-37.5238 0.85015,-17.04013 -2.47473,-26.12732 -12.30229,-33.62316 C 542.8846,400.6746 542.06954,400.5 533.07784,400.5 c -10.83527,0 -16.24343,1.98042 -22.2051,8.1313 -2.64571,2.72968 -3.5034,3.1131 -4.79723,2.14456 -1.2877,-0.96395 -1.35934,-0.93551 -0.3922,0.15568 0.92865,1.04776 0.55344,2.45116 -1.74341,6.52096 -4.04384,7.16529 -5.68592,13.08614 -7.50133,27.0475 -1.73493,13.34248 -3.80251,22.36929 -6.17417,26.95566 -2.72825,5.27595 -5.63201,8.61725 -7.02445,8.08292 -0.73911,-0.28362 -1.06838,-0.07 -0.73171,0.47475 0.33666,0.54473 -0.51216,1.41786 -1.88626,1.94029 -2.46367,0.93669 -2.49095,1.07205 -1.96446,9.74813 0.34358,5.66199 -0.0349,12.51479 -1.06181,19.22439 -0.87764,5.73437 -1.59571,11.02187 -1.59571,11.75 0,1.99342 9.29777,1.67739 18.28659,-0.62156 z m -16.8758,-77.63015 C 478.74527,435.116 480.54221,425.475 481.404,423 c 2.20811,-6.34151 2.0958,-6.47026 -2.654,-3.04254 -2.3375,1.68686 -6.6125,4.63093 -9.5,6.54236 -2.8875,1.91144 -5.25353,3.81843 -5.25784,4.23776 -0.004,0.41933 1.78418,5.71242 3.97444,11.76242 2.19025,6.05 4.47335,12.95792 5.07356,15.35094 0.60021,2.39302 1.28322,4.15901 1.5178,3.92444 0.23458,-0.23458 1.51835,-8.04251 2.85283,-17.35095 z m 0.0465,-38.35533 c 0.31644,-0.512 0.19299,-1.1672 -0.27431,-1.45601 -0.46731,-0.28881 -0.84965,0.13009 -0.84965,0.9309 0,1.68617 0.31534,1.83349 1.12396,0.52511 z"
       id="path60" />
  </g>
</svg>
